# xmcd
#
# Track frame offsets:
#	150
#	12320
#	25577
#	38440
#	50680
#	63307
#	75752
#	88477
#	102160
#	114980
#	127697
#	139710
#	150640
#	162940
#	173542
#	184952
#	196867
#	209042
#	223010
#	236357
#	249472
#	261020
#	273602
#	285582
#
# Disc length: 3960 seconds
#
# Revision: 0
# Processed by: cddbd v1.5.2PL0 Copyright (c) Steve Scherf et al.
# Submitted via: EasyCDDAExtractor 7.5.0.1
#
DISCID=410f7618
DTITLE=Wilf "Montana Slim" Carter - Montana Slim: A Prairie Legend [Bear Famil
DTITLE=y] Disc 1
DYEAR=1993
DGENRE=Country
TTITLE0=Farewell, Sweetheart, Farewell (1944)
TTITLE1=Old Shep (1944)
TTITLE2=I've Hung Up My Chaps And Saddle (1944)
TTITLE3=You'll Get Use To It (1944)
TTITLE4=I Ain't Gonna Hobo No More (1944)
TTITLE5=Don't Be Mean, I Wasn't Mean To You (1944)
TTITLE6=A Sinner's Prayer (1944)
TTITLE7=Plant Some Flowers On My Grave (1944)
TTITLE8=There's A Gold Star In Her Window (1944)
TTITLE9=My Blue Skies (1944)
TTITLE10=Put Me In Your Pocket (1944)
TTITLE11=Smilin' Thru' Tears (1944)
TTITLE12=Born To Lose (1944)
TTITLE13=No Letter Today (1944)
TTITLE14=Our Canadian Flag (1944)
TTITLE15=So Hard To Start (1944)
TTITLE16=I'll Never Die Of A Broken Heart (1944)
TTITLE17=Dreaming Of My Blue Eyes (1944)
TTITLE18=Memories Bring Heartaches To Me (1944)
TTITLE19=My Queen Of The Prairies (1944)
TTITLE20=Rye Whiskey (1947)
TTITLE21=One Golden Curl (1948)
TTITLE22=Hang The Key On The Bunkhouse Door (1947)
TTITLE23=I'm A Fool For Foolin' Around (1948)
EXTD=
EXTT0=
EXTT1=
EXTT2=
EXTT3=
EXTT4=
EXTT5=
EXTT6=
EXTT7=
EXTT8=
EXTT9=
EXTT10=
EXTT11=
EXTT12=
EXTT13=
EXTT14=
EXTT15=
EXTT16=
EXTT17=
EXTT18=
EXTT19=
EXTT20=
EXTT21=
EXTT22=
EXTT23=
PLAYORDER=
